<mxfile host="Electron" agent="Mozilla/5.0 (Windows NT 10.0; Win64; x64) AppleWebKit/537.36 (KHTML, like Gecko) draw.io/28.1.2 Chrome/138.0.7204.243 Electron/37.4.0 Safari/537.36" version="28.1.2">
  <diagram name="Seite-1" id="nH3mlHsepWCuroxPU7WZ">
    <mxGraphModel dx="815" dy="481" grid="1" gridSize="10" guides="1" tooltips="1" connect="1" arrows="1" fold="1" page="1" pageScale="1" pageWidth="827" pageHeight="1169" math="0" shadow="0">
      <root>
        <mxCell id="0" />
        <mxCell id="1" parent="0" />
        <mxCell id="6QaBot7R_VpHeY8Crr8U-8" value="" style="edgeStyle=orthogonalEdgeStyle;rounded=0;orthogonalLoop=1;jettySize=auto;html=1;" edge="1" parent="1" source="6QaBot7R_VpHeY8Crr8U-1" target="6QaBot7R_VpHeY8Crr8U-2">
          <mxGeometry relative="1" as="geometry" />
        </mxCell>
        <mxCell id="6QaBot7R_VpHeY8Crr8U-1" value="START" style="strokeWidth=2;html=1;shape=mxgraph.flowchart.start_2;whiteSpace=wrap;" vertex="1" parent="1">
          <mxGeometry x="140" y="40" width="100" height="100" as="geometry" />
        </mxCell>
        <mxCell id="6QaBot7R_VpHeY8Crr8U-9" value="" style="edgeStyle=orthogonalEdgeStyle;rounded=0;orthogonalLoop=1;jettySize=auto;html=1;" edge="1" parent="1" source="6QaBot7R_VpHeY8Crr8U-2" target="6QaBot7R_VpHeY8Crr8U-3">
          <mxGeometry relative="1" as="geometry" />
        </mxCell>
        <mxCell id="6QaBot7R_VpHeY8Crr8U-2" value="Input: Number1" style="shape=parallelogram;html=1;strokeWidth=2;perimeter=parallelogramPerimeter;whiteSpace=wrap;rounded=1;arcSize=12;size=0.23;" vertex="1" parent="1">
          <mxGeometry x="85" y="170" width="210" height="90" as="geometry" />
        </mxCell>
        <mxCell id="6QaBot7R_VpHeY8Crr8U-10" value="" style="edgeStyle=orthogonalEdgeStyle;rounded=0;orthogonalLoop=1;jettySize=auto;html=1;" edge="1" parent="1" source="6QaBot7R_VpHeY8Crr8U-3" target="6QaBot7R_VpHeY8Crr8U-4">
          <mxGeometry relative="1" as="geometry" />
        </mxCell>
        <mxCell id="6QaBot7R_VpHeY8Crr8U-3" value="Input: Choose Operator&amp;nbsp;&lt;br&gt;+; -; *; /" style="shape=parallelogram;html=1;strokeWidth=2;perimeter=parallelogramPerimeter;whiteSpace=wrap;rounded=1;arcSize=12;size=0.23;" vertex="1" parent="1">
          <mxGeometry x="75" y="310" width="230" height="90" as="geometry" />
        </mxCell>
        <mxCell id="6QaBot7R_VpHeY8Crr8U-11" value="" style="edgeStyle=orthogonalEdgeStyle;rounded=0;orthogonalLoop=1;jettySize=auto;html=1;" edge="1" parent="1" source="6QaBot7R_VpHeY8Crr8U-4" target="6QaBot7R_VpHeY8Crr8U-6">
          <mxGeometry relative="1" as="geometry" />
        </mxCell>
        <mxCell id="6QaBot7R_VpHeY8Crr8U-4" value="Input: Number 2" style="shape=parallelogram;html=1;strokeWidth=2;perimeter=parallelogramPerimeter;whiteSpace=wrap;rounded=1;arcSize=12;size=0.23;" vertex="1" parent="1">
          <mxGeometry x="75" y="460" width="230" height="90" as="geometry" />
        </mxCell>
        <mxCell id="6QaBot7R_VpHeY8Crr8U-6" value="Result Input" style="rounded=1;whiteSpace=wrap;html=1;" vertex="1" parent="1">
          <mxGeometry x="85" y="600" width="210" height="90" as="geometry" />
        </mxCell>
        <mxCell id="6QaBot7R_VpHeY8Crr8U-7" value="END" style="ellipse;whiteSpace=wrap;html=1;aspect=fixed;" vertex="1" parent="1">
          <mxGeometry x="150" y="1060" width="80" height="80" as="geometry" />
        </mxCell>
        <mxCell id="6QaBot7R_VpHeY8Crr8U-14" value="&lt;h1 style=&quot;margin-top: 0px;&quot;&gt;Pseudo Code&lt;/h1&gt;&lt;p&gt;Start&lt;/p&gt;&lt;p&gt;&lt;span style=&quot;white-space: pre;&quot;&gt;&#x9;&lt;/span&gt;def calculator&lt;br&gt;&lt;span style=&quot;white-space: pre;&quot;&gt;&#x9;&lt;/span&gt;&lt;span style=&quot;white-space: pre;&quot;&gt;&#x9;&lt;/span&gt;input : num 1&lt;br&gt;&lt;span style=&quot;white-space: pre;&quot;&gt;&#x9;&lt;/span&gt;&lt;span style=&quot;white-space: pre;&quot;&gt;&#x9;&lt;/span&gt;input: operator&lt;br&gt;&lt;span style=&quot;white-space: pre;&quot;&gt;&#x9;&lt;/span&gt;&lt;span style=&quot;white-space: pre;&quot;&gt;&#x9;&lt;/span&gt;input: num 2&lt;br&gt;&lt;/p&gt;&lt;p&gt;&lt;span style=&quot;white-space: pre;&quot;&gt;&#x9;&lt;/span&gt;result of all Inputs&lt;br&gt;&lt;/p&gt;&lt;p&gt;&lt;span style=&quot;white-space: pre;&quot;&gt;&#x9;&lt;/span&gt;ask for another Operation&lt;br&gt;&lt;/p&gt;&lt;p&gt;End&lt;/p&gt;" style="text;html=1;whiteSpace=wrap;overflow=hidden;rounded=0;" vertex="1" parent="1">
          <mxGeometry x="660" y="110" width="330" height="290" as="geometry" />
        </mxCell>
        <mxCell id="6QaBot7R_VpHeY8Crr8U-16" style="edgeStyle=orthogonalEdgeStyle;rounded=0;orthogonalLoop=1;jettySize=auto;html=1;exitX=1;exitY=0.5;exitDx=0;exitDy=0;" edge="1" parent="1" source="6QaBot7R_VpHeY8Crr8U-15" target="6QaBot7R_VpHeY8Crr8U-2">
          <mxGeometry relative="1" as="geometry">
            <mxPoint x="360" y="230" as="targetPoint" />
            <mxPoint x="374.17" y="810" as="sourcePoint" />
            <Array as="points">
              <mxPoint x="630" y="795" />
              <mxPoint x="630" y="220" />
            </Array>
          </mxGeometry>
        </mxCell>
        <mxCell id="6QaBot7R_VpHeY8Crr8U-21" value="" style="edgeStyle=orthogonalEdgeStyle;rounded=0;orthogonalLoop=1;jettySize=auto;html=1;" edge="1" parent="1" source="6QaBot7R_VpHeY8Crr8U-15" target="6QaBot7R_VpHeY8Crr8U-7">
          <mxGeometry relative="1" as="geometry" />
        </mxCell>
        <mxCell id="6QaBot7R_VpHeY8Crr8U-15" value="Ask for another Operation" style="shape=parallelogram;perimeter=parallelogramPerimeter;whiteSpace=wrap;html=1;fixedSize=1;" vertex="1" parent="1">
          <mxGeometry x="75" y="740" width="230" height="110" as="geometry" />
        </mxCell>
        <mxCell id="6QaBot7R_VpHeY8Crr8U-20" value="If yes&amp;nbsp;&lt;br&gt;return to Start" style="rhombus;whiteSpace=wrap;html=1;" vertex="1" parent="1">
          <mxGeometry x="414" y="740" width="116" height="120" as="geometry" />
        </mxCell>
        <mxCell id="6QaBot7R_VpHeY8Crr8U-22" value="If No -&amp;gt; end" style="rhombus;whiteSpace=wrap;html=1;" vertex="1" parent="1">
          <mxGeometry x="150" y="920" width="80" height="80" as="geometry" />
        </mxCell>
      </root>
    </mxGraphModel>
  </diagram>
</mxfile>
